<?xml version="1.0" encoding="UTF-8" standalone="no"?>
<svg
   xmlns:osb="http://www.openswatchbook.org/uri/2009/osb"
   xmlns:dc="http://purl.org/dc/elements/1.1/"
   xmlns:cc="http://creativecommons.org/ns#"
   xmlns:rdf="http://www.w3.org/1999/02/22-rdf-syntax-ns#"
   xmlns:svg="http://www.w3.org/2000/svg"
   xmlns="http://www.w3.org/2000/svg"
   xmlns:sodipodi="http://sodipodi.sourceforge.net/DTD/sodipodi-0.dtd"
   xmlns:inkscape="http://www.inkscape.org/namespaces/inkscape"
   width="210mm"
   height="297mm"
   viewBox="0 0 210 297"
   version="1.1"
   id="svg8"
   inkscape:version="1.0.1 (c497b03c, 2020-09-10)"
   sodipodi:docname="toastpixdoodle.svg">
  <defs
     id="defs2">
    <linearGradient
       id="linearGradient899"
       osb:paint="solid">
      <stop
         style="stop-color:#000000;stop-opacity:1;"
         offset="0"
         id="stop897" />
    </linearGradient>
    <inkscape:path-effect
       effect="spiro"
       id="path-effect863"
       is_visible="true"
       lpeversion="1" />
    <inkscape:path-effect
       effect="skeletal"
       id="path-effect859"
       is_visible="true"
       lpeversion="1"
       pattern="M 0,5 C 0,2.24 2.24,0 5,0 7.76,0 10,2.24 10,5 10,7.76 7.76,10 5,10 2.24,10 0,7.76 0,5 Z"
       copytype="single_stretched"
       prop_scale="1"
       scale_y_rel="false"
       spacing="0"
       normal_offset="0"
       tang_offset="0"
       prop_units="false"
       vertical_pattern="false"
       hide_knot="false"
       fuse_tolerance="0" />
    <inkscape:path-effect
       effect="spiro"
       id="path-effect849"
       is_visible="true"
       lpeversion="1" />
    <inkscape:path-effect
       effect="spiro"
       id="path-effect837"
       is_visible="true"
       lpeversion="1" />
  </defs>
  <sodipodi:namedview
     id="base"
     pagecolor="#ffffff"
     bordercolor="#666666"
     borderopacity="1.0"
     inkscape:pageopacity="0.0"
     inkscape:pageshadow="2"
     inkscape:zoom="2.7410425"
     inkscape:cx="680.23407"
     inkscape:cy="217.56392"
     inkscape:document-units="mm"
     inkscape:current-layer="layer1"
     inkscape:document-rotation="0"
     showgrid="false"
     inkscape:window-width="1252"
     inkscape:window-height="755"
     inkscape:window-x="0"
     inkscape:window-y="23"
     inkscape:window-maximized="0" />
  <metadata
     id="metadata5">
    <rdf:RDF>
      <cc:Work
         rdf:about="">
        <dc:format>image/svg+xml</dc:format>
        <dc:type
           rdf:resource="http://purl.org/dc/dcmitype/StillImage" />
        <dc:title></dc:title>
      </cc:Work>
    </rdf:RDF>
  </metadata>
  <g
     inkscape:label="Layer 1"
     inkscape:groupmode="layer"
     id="layer1">
    <g
       id="g887"
       transform="matrix(0.41985477,0,0,0.41985477,24.147037,51.010696)">
      <path
         style="fill:#ffffff;stroke:#000000;stroke-width:0.265;stroke-linecap:butt;stroke-linejoin:miter;stroke-miterlimit:4;stroke-dasharray:none;stroke-opacity:1"
         d="m 41.281508,107.0518 -0.438737,75.90148"
         id="path839" />
      <g
         id="g880">
        <path
           style="fill:none;stroke:#000000;stroke-width:0.275629px;stroke-linecap:butt;stroke-linejoin:miter;stroke-opacity:1"
           d="m 41.281508,107.0518 c 0.789897,-4.03164 2.659083,-7.846611 5.360892,-10.941485 2.701809,-3.094875 6.229528,-5.461959 10.117625,-6.788883 3.888096,-1.326923 8.12691,-1.610389 12.157068,-0.812989 4.030158,0.797399 7.841648,2.673683 10.931488,5.381248 1.891574,1.657548 3.503467,3.605812 5.281126,5.384981 1.777659,1.779168 3.777413,3.421898 6.146153,4.267228 2.519337,0.89908 5.31861,0.83001 7.900765,0.13153 2.582155,-0.69848 4.967315,-1.99821 7.173595,-3.51074 4.41256,-3.025039 8.23347,-6.949945 13.01775,-9.344158 6.17205,-3.088698 13.71518,-3.293129 20.04546,-0.543263 6.33028,2.749866 11.32911,8.402503 13.28411,15.021581"
           id="path835"
           inkscape:path-effect="#path-effect837"
           inkscape:original-d="m 41.281508,107.0518 c 12.855978,-4.24086 25.711669,-8.920722 38.567073,-13.162109 12.855403,-4.241387 7.618474,6.435069 11.427279,9.652209 3.808808,3.21714 22.22004,-12.576857 28.09211,-12.723368 5.87206,-0.14651 26.08882,21.179158 33.32957,14.478318"
           sodipodi:nodetypes="csssc" />
        <path
           style="fill:#ffffff;stroke:#000000;stroke-width:0.269585;stroke-linecap:butt;stroke-linejoin:miter;stroke-miterlimit:4;stroke-dasharray:none;stroke-opacity:1"
           d="m 152.69783,105.29724 -0.43846,78.60083"
           id="path841"
           sodipodi:nodetypes="cc" />
        <path
           style="fill:none;stroke:#000000;stroke-width:0.264583px;stroke-linecap:butt;stroke-linejoin:miter;stroke-opacity:1"
           d="m 40.842771,182.95328 c 33.854858,18.79773 77.247829,19.1657 111.416599,0.94479 2.23376,-1.19118 4.4287,-2.45516 6.58015,-3.78927"
           id="path861"
           inkscape:path-effect="#path-effect863"
           inkscape:original-d="m 40.842771,182.95328 c 37.139115,0.31519 74.278009,0.63012 111.416599,0.94479 37.13858,0.31466 4.38703,-2.52591 6.58015,-3.78927" />
      </g>
    </g>
    <path
       d="m 109.33339,97.351939 -8.67276,-0.234923 0.41006,15.100614 -1.377848,-0.73415 V 97.117016 l -7.888564,0.997332 0.187068,-3.39392 8.284324,1.446846 11.26513,-0.151503 z"
       style="font-style:normal;font-weight:normal;font-size:22.4041px;line-height:1.25;font-family:sans-serif;fill:#000000;fill-opacity:0.762097;stroke:none;stroke-width:0.560105"
       id="path921"
       sodipodi:nodetypes="cccccccccc" />
    <path
       d="m 121.54061,98.008896 q 1.01018,1.078049 1.54301,2.641224 0.54394,1.56318 0.54394,3.5468 0,1.98362 -0.55503,3.55757 -0.54395,1.56317 -1.53192,2.60888 -1.02128,1.08884 -2.41998,1.63865 -1.38761,0.5498 -3.17484,0.5498 -1.74283,0 -3.17483,-0.56058 -1.42091,-0.5606 -2.41998,-1.62787 -0.99908,-1.06727 -1.54302,-2.61967 -0.53284,-1.55238 -0.53284,-3.54678 0,-1.96206 0.53284,-3.51445 0.53284,-1.563182 1.55412,-2.673574 0.97687,-1.056491 2.41998,-1.617078 1.4542,-0.560587 3.16373,-0.560587 1.77614,0 3.18594,0.571368 1.42091,0.560587 2.40888,1.606297 z m -0.19982,6.188024 q 0,-3.12636 -1.4431,-4.818897 -1.44311,-1.703323 -3.9408,-1.703323 -2.51988,0 -3.96299,1.703323 -1.432,1.692537 -1.432,4.818897 0,3.15869 1.4653,4.84045 1.46531,1.67099 3.92969,1.67099 2.46438,0 3.9186,-1.67099 1.4653,-1.68176 1.4653,-4.84045 z"
       style="font-style:normal;font-weight:normal;font-size:22.4041px;line-height:1.25;font-family:sans-serif;fill:#000000;fill-opacity:0.762097;stroke:none;stroke-width:0.560105"
       id="path923" />
    <path
       d="m 140.14559,112.21763 h -2.34227 l -1.62072,-4.47393 h -7.14893 l -1.62072,4.47393 h -2.23127 l 6.01665,-16.052204 h 2.93062 z m -4.64014,-6.30661 -2.89731,-7.880563 -2.90842,7.880563 z"
       style="font-style:normal;font-weight:normal;font-size:22.4041px;line-height:1.25;font-family:sans-serif;fill:#000000;fill-opacity:0.762097;stroke:none;stroke-width:0.560105"
       id="path925" />
    <path
       d="m 154.66548,107.6359 q 0,0.93791 -0.45514,1.85425 -0.44403,0.91635 -1.25439,1.5524 -0.88806,0.68995 -2.07586,1.07805 -1.17669,0.3881 -2.8418,0.3881 -1.78724,0 -3.21925,-0.32341 -1.4209,-0.32343 -2.89731,-0.95948 v -2.67356 h 0.1554 q 1.2544,1.01337 2.89732,1.56317 1.64293,0.54981 3.08604,0.54981 2.04254,0 3.17483,-0.74386 1.14338,-0.74385 1.14338,-1.98362 0,-1.06727 -0.54393,-1.57395 -0.53285,-0.50668 -1.63183,-0.78698 -0.83256,-0.21561 -1.80943,-0.35575 -0.96578,-0.14015 -2.05366,-0.35576 -2.19796,-0.45278 -3.26364,-1.54161 -1.05457,-1.09962 -1.05457,-2.85684 0,-2.015965 1.75393,-3.298845 1.75393,-1.293662 4.45143,-1.293662 1.74283,0 3.19704,0.323415 1.4542,0.323416 2.57539,0.797759 v 2.522639 h -0.15541 q -0.94357,-0.776194 -2.48659,-1.282882 -1.53191,-0.517462 -3.14153,-0.517462 -1.76503,0 -2.84181,0.711511 -1.06569,0.711517 -1.06569,1.832697 0,1.00258 0.53284,1.57396 0.53285,0.57136 1.87605,0.87322 0.71044,0.15092 2.02035,0.36653 1.3099,0.21561 2.22016,0.442 1.84273,0.47435 2.7752,1.43381 0.93248,0.95947 0.93248,2.68435 z"
       style="font-style:normal;font-weight:normal;font-size:22.4041px;line-height:1.25;font-family:sans-serif;fill:#000000;fill-opacity:0.762097;stroke:none;stroke-width:0.560105"
       id="path927" />
    <path
       d="m 169.98461,98.062799 h -5.90563 v 14.154831 h -2.19797 V 98.062799 h -5.90564 v -1.897373 h 14.00924 z"
       style="font-style:normal;font-weight:normal;font-size:22.4041px;line-height:1.25;font-family:sans-serif;fill:#000000;fill-opacity:0.762097;stroke:none;stroke-width:0.560105"
       id="path929" />
    <path
       d="m 115.29154,50.173404 -9.92612,-0.103974 0.82161,14.745182 -1.37785,-0.734144 -0.66188,-13.379961 -7.22668,2.405299 0.486378,-6.461841 7.455892,2.49067 14.71251,-0.484466 z"
       style="font-style:normal;font-weight:normal;font-size:22.4041px;line-height:1.25;font-family:sans-serif;fill:#000000;fill-opacity:0.762097;stroke:none;stroke-width:0.560105"
       id="path944"
       sodipodi:nodetypes="cccccccccc" />
    <path
       d="m 142.22254,21.849259 -8.67276,-0.234923 0.41006,15.100611 -1.37784,-0.734143 -6.34877,-11.883415 -1.53981,0.908753 0.48638,-6.46184 7.98502,2.120292 12.2753,-0.132796 z"
       style="font-style:normal;font-weight:normal;font-size:22.4041px;line-height:1.25;font-family:sans-serif;fill:#000000;fill-opacity:0.762097;stroke:none;stroke-width:0.560105"
       id="path946"
       sodipodi:nodetypes="cccccccccc" />
    <text
       xml:space="preserve"
       style="font-style:normal;font-weight:normal;font-size:22.49650000000000105px;line-height:1.25;font-family:sans-serif;fill:none;fill-opacity:1;stroke:#000000;stroke-width:0.1;stroke-miterlimit:4;stroke-dasharray:none"
       x="40.156799"
       y="260.03207"
       id="text895"
       transform="scale(2.1256634,0.47044136)"><tspan
         sodipodi:role="line"
         id="tspan893"
         x="40.156799"
         y="260.03207"
         style="stroke-width:0.1;stroke-miterlimit:4;stroke-dasharray:none;fill:none;stroke:#000000">PIX</tspan></text>
    <text
       xml:space="preserve"
       style="font-style:normal;font-weight:normal;font-size:22.4041px;line-height:1.25;font-family:sans-serif;fill:#000000;fill-opacity:0.762097;stroke:none;stroke-width:0.560105"
       x="36.713142"
       y="1.1405044"
       id="text915"
       transform="scale(1.0147469,0.98546741)"><tspan
         sodipodi:role="line"
         id="tspan913"
         x="36.713142"
         y="1.1405044"
         style="fill:#000000;fill-opacity:0.762097;stroke-width:0.560105">TOAST</tspan></text>
    <path
       style="fill:none;stroke:#000000;stroke-width:0.264583px;stroke-linecap:butt;stroke-linejoin:miter;stroke-opacity:1"
       d="m 223.73379,-54.623969 -0.29931,17.060637 c 0,0 8.08136,0.748273 8.08136,0.149654 0,-0.598617 0.74827,-17.210291 0.74827,-17.210291 z"
       id="path936" />
    <path
       style="fill:none;stroke:#000000;stroke-width:0.264583px;stroke-linecap:butt;stroke-linejoin:miter;stroke-opacity:1"
       d="m 226.72688,-36.366095 -1.19723,19.155803 -2.09517,-0.149654 -0.59862,4.639296 7.03377,0.598619 0.14966,-4.339987 -2.84344,-0.598619 1.19724,-19.754422"
       id="path938" />
    <ellipse
       style="opacity:0.617363;fill:#000000;fill-opacity:0.762097;stroke:#000000;stroke-width:0.1;stroke-linecap:round;stroke-linejoin:round;stroke-miterlimit:4;stroke-dasharray:none;paint-order:stroke fill markers"
       id="path940"
       cx="192.90492"
       cy="-52.528801"
       rx="3.4420583"
       ry="3.7413676" />
    <ellipse
       style="opacity:0.617363;fill:#000000;fill-opacity:0.762097;stroke:#000000;stroke-width:0.1;stroke-linecap:round;stroke-linejoin:round;stroke-miterlimit:4;stroke-dasharray:none;paint-order:stroke fill markers"
       id="path942"
       cx="193.6532"
       cy="-33.522655"
       rx="10.326176"
       ry="9.2785921" />
    <path
       d="m 187.26785,31.04353 -2.58734,3.667682 -8.02129,-3.73251 3.6027,13.541454 -1.37784,-0.734143 -6.34877,-11.883415 -1.53981,0.908753 0.48638,-6.46184 7.98502,2.120292 12.2753,-0.132796 z"
       style="font-style:normal;font-weight:normal;font-size:22.4041px;line-height:1.25;font-family:sans-serif;fill:#000000;fill-opacity:0.762097;stroke:none;stroke-width:0.560105"
       id="path981"
       sodipodi:nodetypes="ccccccccccc" />
    <path
       d="m 172.43432,70.552208 -1.51715,-0.198558 -0.0568,-1.165556 0.44184,-0.535258 -0.48316,-0.312454 -0.0487,-0.999124 -1.1006,0.539604 -0.41541,0.856548 -0.74997,0.236531 -1.24778,1.603259 0.003,-0.532206 2.57774,-3.801314 -0.51854,-0.320349 2.02675,-0.878735 0.6275,2.745593 2.27173,3.984794 z"
       style="font-style:normal;font-weight:normal;font-size:22.4041px;line-height:1.25;font-family:sans-serif;fill:#000000;fill-opacity:0.762097;stroke:none;stroke-width:0.190937"
       id="path983"
       sodipodi:nodetypes="ccccccccccccccccc" />
    <text
       xml:space="preserve"
       style="font-style:normal;font-weight:normal;font-size:1.67429px;line-height:1.25;font-family:sans-serif;fill:#000000;fill-opacity:1;stroke:none;stroke-width:0.0418571"
       x="137.1273"
       y="86.50209"
       id="text987"
       transform="scale(1.2814337,0.78037592)"><tspan
         sodipodi:role="line"
         id="tspan985"
         x="137.1273"
         y="86.50209"
         style="stroke-width:0.0418571">ubcon</tspan></text>
    <text
       xml:space="preserve"
       style="font-style:normal;font-weight:normal;font-size:5.09564px;line-height:1.25;font-family:sans-serif;fill:#000000;fill-opacity:1;stroke:none;stroke-width:0.127392"
       x="172.44753"
       y="68.850029"
       id="text991"><tspan
         sodipodi:role="line"
         id="tspan989"
         x="172.44753"
         y="68.850029"
         style="stroke-width:0.127392">S</tspan></text>
    <text
       xml:space="preserve"
       style="font-style:normal;font-weight:normal;font-size:4.39561px;line-height:1.25;font-family:sans-serif;fill:#000000;fill-opacity:1;stroke:none;stroke-width:0.109891"
       x="175.48195"
       y="71.026321"
       id="text995"><tspan
         sodipodi:role="line"
         id="tspan993"
         x="175.48195"
         y="71.026321"
         style="stroke-width:0.109891">E</tspan></text>
    <text
       xml:space="preserve"
       style="font-style:normal;font-weight:normal;font-size:2.46476px;line-height:1.25;font-family:sans-serif;fill:#000000;fill-opacity:1;stroke:none;stroke-width:0.0616189"
       x="178.09265"
       y="70.796364"
       id="text999"><tspan
         sodipodi:role="line"
         id="tspan997"
         x="178.09265"
         y="70.796364"
         style="stroke-width:0.0616189">ncryption</tspan></text>
  </g>
</svg>
